<svg width="25" height="26" viewBox="0 0 25 26" fill="none" xmlns="http://www.w3.org/2000/svg">
<path d="M12.4244 25.1118C14.9326 25.1112 17.3719 24.2746 19.3704 22.7294C21.369 21.1841 22.8173 19.0151 23.4946 16.5527C24.172 14.0904 24.0412 11.4697 23.1222 9.09021C22.2032 6.71068 20.5464 4.70273 18.4043 3.37234C16.2623 2.04196 13.7523 1.46211 11.257 1.72115C8.76175 1.98019 6.41794 3.06391 4.58277 4.80717C2.74761 6.55043 1.52174 8.85764 1.09197 11.3772C0.662194 13.8967 1.05209 16.4905 2.20223 18.7631L0.924455 25.1118L7.15106 23.809C8.7304 24.6415 10.5244 25.1118 12.4244 25.1118Z" stroke="black" stroke-width="1.5" stroke-linecap="round" stroke-linejoin="round"/>
<path d="M6.67444 13.3863H6.68722V13.3991H6.67444V13.3863ZM12.4244 13.3863H12.4372V13.3991H12.4244V13.3863ZM18.1744 13.3863H18.1872V13.3991H18.1744V13.3863Z" stroke="black" stroke-width="2.25" stroke-linejoin="round"/>
</svg>
